<?xml version="1.0" encoding="UTF-8" standalone="no"?>
<svg xmlns="http://www.w3.org/2000/svg" version="1.1" viewBox="0 -256 1792 1792">
	<style>
		path { fill:#555; pointer-events:all; }
		path:hover { fill:lightfreen; }
	</style>
	<path 
		d="m 1511,480 q 0,-5 -1,-7 Q 1446,205 1242,38.5 1038,-128 764,-128 618,-128 481.5,-73 345,-18 238,84 L 109,-45 Q 90,-64 64,-64 38,-64 19,-45 0,-26 0,0 v 448 q 0,26 19,45 19,19 45,19 h 448 q 26,0 45,-19 19,-19 19,-45 0,-26 -19,-45 L 420,266 q 71,-66 161,-102 90,-36 187,-36 134,0 250,65 116,65 186,179 11,17 53,117 8,23 30,23 h 192 q 13,0 22.5,-9.5 9.5,-9.5 9.5,-22.5 z m 25,800 V 832 q 0,-26 -19,-45 -19,-19 -45,-19 h -448 q -26,0 -45,19 -19,19 -19,45 0,26 19,45 l 138,138 Q 969,1152 768,1152 634,1152 518,1087 402,1022 332,908 321,891 279,791 271,768 249,768 H 50 Q 37,768 27.5,777.5 18,787 18,800 v 7 q 65,268 270,434.5 205,166.5 480,166.5 146,0 284,-55.5 138,-55.5 245,-156.5 l 130,129 q 19,19 45,19 26,0 45,-19 19,-19 19,-45 z" 
		/>
</svg>
